<svg id="visual" viewBox="0 0 900 600" width="900" height="600" xmlns="http://www.w3.org/2000/svg" xmlns:xlink="http://www.w3.org/1999/xlink" version="1.1"><rect x="0" y="0" width="900" height="600" fill="#001220"></rect><path d="M0 426L21.5 418.2C43 410.3 86 394.7 128.8 395.2C171.7 395.7 214.3 412.3 257.2 418.7C300 425 343 421 385.8 420.2C428.7 419.3 471.3 421.7 514.2 426.2C557 430.7 600 437.3 642.8 428.8C685.7 420.3 728.3 396.7 771.2 387.5C814 378.3 857 383.7 878.5 386.3L900 389L900 601L878.5 601C857 601 814 601 771.2 601C728.3 601 685.7 601 642.8 601C600 601 557 601 514.2 601C471.3 601 428.7 601 385.8 601C343 601 300 601 257.2 601C214.3 601 171.7 601 128.8 601C86 601 43 601 21.5 601L0 601Z" fill="#5b8dc9"></path><path d="M0 423L21.5 424.8C43 426.7 86 430.3 128.8 426.8C171.7 423.3 214.3 412.7 257.2 413.7C300 414.7 343 427.3 385.8 438.5C428.7 449.7 471.3 459.3 514.2 451.7C557 444 600 419 642.8 414.7C685.7 410.3 728.3 426.7 771.2 430.8C814 435 857 427 878.5 423L900 419L900 601L878.5 601C857 601 814 601 771.2 601C728.3 601 685.7 601 642.8 601C600 601 557 601 514.2 601C471.3 601 428.7 601 385.8 601C343 601 300 601 257.2 601C214.3 601 171.7 601 128.8 601C86 601 43 601 21.5 601L0 601Z" fill="#3779cf"></path><path d="M0 487L21.5 481.5C43 476 86 465 128.8 458.7C171.7 452.3 214.3 450.7 257.2 457C300 463.3 343 477.7 385.8 485C428.7 492.3 471.3 492.7 514.2 487.5C557 482.3 600 471.7 642.8 470.7C685.7 469.7 728.3 478.3 771.2 475C814 471.7 857 456.3 878.5 448.7L900 441L900 601L878.5 601C857 601 814 601 771.2 601C728.3 601 685.7 601 642.8 601C600 601 557 601 514.2 601C471.3 601 428.7 601 385.8 601C343 601 300 601 257.2 601C214.3 601 171.7 601 128.8 601C86 601 43 601 21.5 601L0 601Z" fill="#1662d2"></path><path d="M0 493L21.5 497.3C43 501.7 86 510.3 128.8 516C171.7 521.7 214.3 524.3 257.2 523.2C300 522 343 517 385.8 514.8C428.7 512.7 471.3 513.3 514.2 514.7C557 516 600 518 642.8 512.3C685.7 506.7 728.3 493.3 771.2 494C814 494.7 857 509.3 878.5 516.7L900 524L900 601L878.5 601C857 601 814 601 771.2 601C728.3 601 685.7 601 642.8 601C600 601 557 601 514.2 601C471.3 601 428.7 601 385.8 601C343 601 300 601 257.2 601C214.3 601 171.7 601 128.8 601C86 601 43 601 21.5 601L0 601Z" fill="#1948d0"></path><path d="M0 526L21.5 526.8C43 527.7 86 529.3 128.8 534C171.7 538.7 214.3 546.3 257.2 547.5C300 548.7 343 543.3 385.8 540.7C428.7 538 471.3 538 514.2 543.2C557 548.3 600 558.7 642.8 559.2C685.7 559.7 728.3 550.3 771.2 545.8C814 541.3 857 541.7 878.5 541.8L900 542L900 601L878.5 601C857 601 814 601 771.2 601C728.3 601 685.7 601 642.8 601C600 601 557 601 514.2 601C471.3 601 428.7 601 385.8 601C343 601 300 601 257.2 601C214.3 601 171.7 601 128.8 601C86 601 43 601 21.5 601L0 601Z" fill="#3724c7"></path></svg>