<svg id="visual" viewBox="0 0 900 600" width="900" height="600" xmlns="http://www.w3.org/2000/svg" xmlns:xlink="http://www.w3.org/1999/xlink" version="1.1"><g stroke-width="1" stroke-linejoin="bevel"><path d="M479 280L433 238L417 264Z" fill="#497085" stroke="#497085"></path><path d="M479 280L463 172L433 238Z" fill="#2c485b" stroke="#2c485b"></path><path d="M294 170L297 269L417 264Z" fill="#1b3243" stroke="#1b3243"></path><path d="M517 406L564 304L479 280Z" fill="#1b3243" stroke="#1b3243"></path><path d="M479 280L582 173L463 172Z" fill="#43687d" stroke="#43687d"></path><path d="M417 264L418 383L479 280Z" fill="#1b3243" stroke="#1b3243"></path><path d="M294 170L417 264L433 238Z" fill="#20394b" stroke="#20394b"></path><path d="M417 264L297 269L418 383Z" fill="#2c485b" stroke="#2c485b"></path><path d="M418 383L517 406L479 280Z" fill="#497085" stroke="#497085"></path><path d="M564 304L582 173L479 280Z" fill="#4f798d" stroke="#4f798d"></path><path d="M517 406L576 379L564 304Z" fill="#1b3243" stroke="#1b3243"></path><path d="M564 304L660 170L582 173Z" fill="#2c485b" stroke="#2c485b"></path><path d="M372 100L433 238L463 172Z" fill="#1b3243" stroke="#1b3243"></path><path d="M372 100L294 170L433 238Z" fill="#37586c" stroke="#37586c"></path><path d="M517 73L372 100L463 172Z" fill="#2c485b" stroke="#2c485b"></path><path d="M582 173L581 130L463 172Z" fill="#264153" stroke="#264153"></path><path d="M418 383L463 463L517 406Z" fill="#315064" stroke="#315064"></path><path d="M625 505L673 428L576 379Z" fill="#558196" stroke="#558196"></path><path d="M320 463L463 463L418 383Z" fill="#315064" stroke="#315064"></path><path d="M581 130L517 73L463 172Z" fill="#497085" stroke="#497085"></path><path d="M297 269L321 433L418 383Z" fill="#497085" stroke="#497085"></path><path d="M307 0L304 100L372 100Z" fill="#558196" stroke="#558196"></path><path d="M372 100L304 100L294 170Z" fill="#558196" stroke="#558196"></path><path d="M198 189L230 336L297 269Z" fill="#43687d" stroke="#43687d"></path><path d="M297 269L230 336L321 433Z" fill="#43687d" stroke="#43687d"></path><path d="M198 189L297 269L294 170Z" fill="#37586c" stroke="#37586c"></path><path d="M582 173L660 170L581 130Z" fill="#3d6074" stroke="#3d6074"></path><path d="M568 0L498 0L517 73Z" fill="#3d6074" stroke="#3d6074"></path><path d="M738 284L660 170L564 304Z" fill="#4f798d" stroke="#4f798d"></path><path d="M215 436L320 463L321 433Z" fill="#315064" stroke="#315064"></path><path d="M321 433L320 463L418 383Z" fill="#20394b" stroke="#20394b"></path><path d="M320 463L432 512L463 463Z" fill="#37586c" stroke="#37586c"></path><path d="M625 505L576 379L517 406Z" fill="#1b3243" stroke="#1b3243"></path><path d="M304 100L198 189L294 170Z" fill="#264153" stroke="#264153"></path><path d="M498 0L422 0L517 73Z" fill="#37586c" stroke="#37586c"></path><path d="M517 73L422 0L372 100Z" fill="#20394b" stroke="#20394b"></path><path d="M304 100L162 64L198 189Z" fill="#558196" stroke="#558196"></path><path d="M568 0L517 73L581 130Z" fill="#558196" stroke="#558196"></path><path d="M625 505L517 406L463 463Z" fill="#20394b" stroke="#20394b"></path><path d="M576 379L738 284L564 304Z" fill="#497085" stroke="#497085"></path><path d="M673 428L738 284L576 379Z" fill="#558196" stroke="#558196"></path><path d="M131 467L215 436L90 405Z" fill="#43687d" stroke="#43687d"></path><path d="M230 336L215 436L321 433Z" fill="#558196" stroke="#558196"></path><path d="M320 463L426 600L432 512Z" fill="#1b3243" stroke="#1b3243"></path><path d="M730 90L568 0L581 130Z" fill="#43687d" stroke="#43687d"></path><path d="M730 90L581 130L660 170Z" fill="#497085" stroke="#497085"></path><path d="M497 600L625 505L463 463Z" fill="#497085" stroke="#497085"></path><path d="M422 0L307 0L372 100Z" fill="#1b3243" stroke="#1b3243"></path><path d="M814 199L730 90L660 170Z" fill="#4f798d" stroke="#4f798d"></path><path d="M268 600L426 600L320 463Z" fill="#43687d" stroke="#43687d"></path><path d="M432 512L497 600L463 463Z" fill="#264153" stroke="#264153"></path><path d="M162 64L118 211L198 189Z" fill="#497085" stroke="#497085"></path><path d="M198 189L118 211L230 336Z" fill="#4f798d" stroke="#4f798d"></path><path d="M426 600L497 600L432 512Z" fill="#497085" stroke="#497085"></path><path d="M307 0L235 0L304 100Z" fill="#20394b" stroke="#20394b"></path><path d="M673 428L790 324L738 284Z" fill="#20394b" stroke="#20394b"></path><path d="M738 284L814 199L660 170Z" fill="#497085" stroke="#497085"></path><path d="M788 468L790 324L673 428Z" fill="#37586c" stroke="#37586c"></path><path d="M235 0L162 64L304 100Z" fill="#20394b" stroke="#20394b"></path><path d="M700 600L717 498L625 505Z" fill="#558196" stroke="#558196"></path><path d="M625 505L717 498L673 428Z" fill="#4f798d" stroke="#4f798d"></path><path d="M497 600L596 600L625 505Z" fill="#264153" stroke="#264153"></path><path d="M790 324L814 199L738 284Z" fill="#264153" stroke="#264153"></path><path d="M131 467L181 525L215 436Z" fill="#315064" stroke="#315064"></path><path d="M215 436L181 525L320 463Z" fill="#2c485b" stroke="#2c485b"></path><path d="M0 205L77 306L118 211Z" fill="#3d6074" stroke="#3d6074"></path><path d="M118 211L77 306L230 336Z" fill="#264153" stroke="#264153"></path><path d="M90 405L215 436L230 336Z" fill="#4f798d" stroke="#4f798d"></path><path d="M181 525L268 600L320 463Z" fill="#37586c" stroke="#37586c"></path><path d="M77 306L90 405L230 336Z" fill="#264153" stroke="#264153"></path><path d="M833 0L737 0L730 90Z" fill="#497085" stroke="#497085"></path><path d="M730 90L737 0L568 0Z" fill="#2c485b" stroke="#2c485b"></path><path d="M831 600L788 468L717 498Z" fill="#4f798d" stroke="#4f798d"></path><path d="M717 498L788 468L673 428Z" fill="#43687d" stroke="#43687d"></path><path d="M790 324L900 321L814 199Z" fill="#43687d" stroke="#43687d"></path><path d="M108 600L235 600L181 525Z" fill="#497085" stroke="#497085"></path><path d="M181 525L235 600L268 600Z" fill="#20394b" stroke="#20394b"></path><path d="M788 468L825 438L790 324Z" fill="#497085" stroke="#497085"></path><path d="M105 0L82 74L162 64Z" fill="#264153" stroke="#264153"></path><path d="M162 64L82 74L118 211Z" fill="#37586c" stroke="#37586c"></path><path d="M596 600L700 600L625 505Z" fill="#43687d" stroke="#43687d"></path><path d="M900 505L900 406L825 438Z" fill="#37586c" stroke="#37586c"></path><path d="M814 199L836 104L730 90Z" fill="#43687d" stroke="#43687d"></path><path d="M900 194L836 104L814 199Z" fill="#20394b" stroke="#20394b"></path><path d="M235 0L105 0L162 64Z" fill="#497085" stroke="#497085"></path><path d="M0 128L118 211L82 74Z" fill="#3d6074" stroke="#3d6074"></path><path d="M0 128L0 205L118 211Z" fill="#1b3243" stroke="#1b3243"></path><path d="M77 306L0 332L90 405Z" fill="#315064" stroke="#315064"></path><path d="M900 406L900 321L790 324Z" fill="#43687d" stroke="#43687d"></path><path d="M90 405L0 519L131 467Z" fill="#37586c" stroke="#37586c"></path><path d="M131 467L108 600L181 525Z" fill="#264153" stroke="#264153"></path><path d="M0 205L0 332L77 306Z" fill="#497085" stroke="#497085"></path><path d="M900 321L900 194L814 199Z" fill="#2c485b" stroke="#2c485b"></path><path d="M900 64L833 0L836 104Z" fill="#497085" stroke="#497085"></path><path d="M836 104L833 0L730 90Z" fill="#497085" stroke="#497085"></path><path d="M0 332L0 393L90 405Z" fill="#1b3243" stroke="#1b3243"></path><path d="M0 0L0 128L82 74Z" fill="#558196" stroke="#558196"></path><path d="M900 505L825 438L788 468Z" fill="#315064" stroke="#315064"></path><path d="M825 438L900 406L790 324Z" fill="#3d6074" stroke="#3d6074"></path><path d="M0 519L108 600L131 467Z" fill="#4f798d" stroke="#4f798d"></path><path d="M900 194L900 64L836 104Z" fill="#1b3243" stroke="#1b3243"></path><path d="M700 600L831 600L717 498Z" fill="#497085" stroke="#497085"></path><path d="M831 600L900 505L788 468Z" fill="#315064" stroke="#315064"></path><path d="M0 393L0 519L90 405Z" fill="#37586c" stroke="#37586c"></path><path d="M105 0L0 0L82 74Z" fill="#3d6074" stroke="#3d6074"></path><path d="M900 64L900 0L833 0Z" fill="#43687d" stroke="#43687d"></path><path d="M0 519L0 600L108 600Z" fill="#20394b" stroke="#20394b"></path><path d="M831 600L900 600L900 505Z" fill="#3d6074" stroke="#3d6074"></path></g></svg>